# xmcd
#
# Track frame offsets: 
#        182
#        11207
#        23622
#        35832
#        47102
#        59135
#        70995
#        84250
#        96192
#        109297
#        120532
#        133005
#        145910
#        157812
#        171385
#        184632
#        197980
#        210412
#        219857
#        233152
#        246180
#        259360
#        269162
#        283037
#        294762
#
# Disc length: 4116 seconds
#
# Revision: 3
# Processed by: cddbd v1.5.2PL0 Copyright (c) Steve Scherf et al.
# Submitted via: ExactAudioCopy v0.99pb4
#
DISCID=7e101219
DTITLE=Martha and The Vandellas - The Ultimate Collection
DYEAR=1998
DGENRE=Soul
TTITLE0=Come And Get These Memories
TTITLE1=(Love Is Like A) Heatwave
TTITLE2=Wild One
TTITLE3=In My Lonely Room
TTITLE4=Dancing In The Street
TTITLE5=Quicksand
TTITLE6=Love (Makes Me Do Foolish Things)
TTITLE7=Live Wire
TTITLE8=I'm Ready For Love
TTITLE9=A Love Like Yours (Don't Come Knocking Everyday)
TTITLE10=Third Finger, Left Hand
TTITLE11=Nowhere To Run
TTITLE12=I Can't Dance To That Music You're Playin'
TTITLE13=Tear It On Down
TTITLE14=Honey Chile
TTITLE15=You've Been In Love Too Long
TTITLE16=Motoring
TTITLE17=I Promise To Wait My Love
TTITLE18=Forget Me Not
TTITLE19=Jimmy Mack
TTITLE20=I Should Be Proud
TTITLE21=Love Bug Leave My Heart Alone
TTITLE22=Bless You
TTITLE23=Darling, I Hum Our Song
TTITLE24=My Baby Loves Me
EXTD=
EXTT0=
EXTT1=
EXTT2=
EXTT3=
EXTT4=
EXTT5=
EXTT6=
EXTT7=
EXTT8=
EXTT9=
EXTT10=
EXTT11=
EXTT12=
EXTT13=
EXTT14=
EXTT15=
EXTT16=
EXTT17=
EXTT18=
EXTT19=
EXTT20=
EXTT21=
EXTT22=
EXTT23=
EXTT24=
PLAYORDER=
